<?xml version="1.0" encoding="UTF-8" standalone="no"?><!DOCTYPE svg PUBLIC "-//W3C//DTD SVG 1.1//EN" "http://www.w3.org/Graphics/SVG/1.1/DTD/svg11.dtd"><svg width="100%" height="100%" viewBox="0 0 721 210" version="1.1" xmlns="http://www.w3.org/2000/svg" xmlns:xlink="http://www.w3.org/1999/xlink" xml:space="preserve" xmlns:serif="http://www.serif.com/" style="fill-rule:evenodd;clip-rule:evenodd;stroke-miterlimit:10;"><g id="header-dark"><g id="logo"><g><path d="M42.019,98.291c2.369,-2.369 6.215,-2.369 8.584,0c2.368,2.369 2.368,6.215 -0,8.584c-2.369,2.369 -6.215,2.369 -8.584,0c-2.369,-2.369 -2.369,-6.215 -0,-8.584Z" style="fill:url(#_Linear1);stroke:#004376;stroke-width:0.67px;"/><path d="M76.354,98.291c2.369,-2.369 6.215,-2.369 8.584,0c2.368,2.369 2.368,6.215 -0,8.584c-2.369,2.369 -6.215,2.369 -8.584,0c-2.369,-2.369 -2.369,-6.215 -0,-8.584Z" style="fill:url(#_Linear2);stroke:#004376;stroke-width:0.67px;"/><path d="M110.689,98.291c2.369,-2.369 6.215,-2.369 8.584,0c2.369,2.369 2.369,6.215 -0,8.584c-2.369,2.369 -6.215,2.369 -8.584,0c-2.369,-2.369 -2.369,-6.215 -0,-8.584Z" style="fill:url(#_Linear3);stroke:#004376;stroke-width:0.67px;"/><path d="M145.024,98.291c2.369,-2.369 6.215,-2.369 8.584,0c2.369,2.369 2.369,6.215 -0,8.584c-2.369,2.369 -6.215,2.369 -8.584,0c-2.369,-2.369 -2.369,-6.215 0,-8.584Z" style="fill:url(#_Linear4);stroke:#004376;stroke-width:0.67px;"/><path d="M179.359,98.291c2.369,-2.369 6.215,-2.369 8.584,0c2.369,2.369 2.369,6.215 -0,8.584c-2.369,2.369 -6.215,2.369 -8.584,0c-2.369,-2.369 -2.369,-6.215 0,-8.584Z" style="fill:url(#_Linear5);stroke:#004376;stroke-width:0.67px;"/><path d="M213.694,98.291c2.369,-2.369 6.215,-2.369 8.584,0c2.369,2.369 2.369,6.215 -0,8.584c-2.369,2.369 -6.215,2.369 -8.584,0c-2.369,-2.369 -2.369,-6.215 0,-8.584Z" style="fill:url(#_Linear6);stroke:#004376;stroke-width:0.67px;"/><path d="M248.029,98.291c2.369,-2.369 6.215,-2.369 8.584,0c2.369,2.369 2.369,6.215 -0,8.584c-2.369,2.369 -6.215,2.369 -8.584,0c-2.369,-2.369 -2.369,-6.215 0,-8.584Z" style="fill:url(#_Linear7);stroke:#004376;stroke-width:0.67px;"/><path d="M282.364,98.291c2.369,-2.369 6.215,-2.369 8.584,0c2.369,2.369 2.369,6.215 -0,8.584c-2.369,2.369 -6.215,2.369 -8.584,0c-2.369,-2.369 -2.369,-6.215 0,-8.584Z" style="fill:url(#_Linear8);stroke:#004376;stroke-width:0.67px;"/><path d="M336.735,98.291c2.369,-2.369 6.215,-2.369 8.584,0c2.368,2.369 2.368,6.215 -0,8.584c-2.369,2.369 -6.215,2.369 -8.584,0c-2.369,-2.369 -2.369,-6.215 -0,-8.584Z" style="fill:url(#_Linear9);stroke:#004376;stroke-width:0.67px;"/></g><g><path d="M54.895,102.583l11.062,0" style="fill:none;fill-rule:nonzero;stroke:#004376;stroke-width:2.02px;"/><path d="M89.23,102.583l11.062,0" style="fill:none;fill-rule:nonzero;stroke:#004376;stroke-width:2.02px;"/><path d="M123.127,102.583l11.063,0" style="fill:none;fill-rule:nonzero;stroke:#004376;stroke-width:2.02px;"/><path d="M193.116,102.583l11.063,0" style="fill:none;fill-rule:nonzero;stroke:#004376;stroke-width:2.02px;"/><path d="M295.263,102.583l11.062,0" style="fill:none;fill-rule:nonzero;stroke:#004376;stroke-width:2.02px;"/><path d="M157.9,102.583l11.062,0" style="fill:none;fill-rule:nonzero;stroke:#004376;stroke-width:2.02px;"/><path d="M226.57,102.583l11.062,0" style="fill:none;fill-rule:nonzero;stroke:#004376;stroke-width:2.02px;"/><path d="M260.905,102.583l11.062,0" style="fill:none;fill-rule:nonzero;stroke:#004376;stroke-width:2.02px;"/></g><g><path d="M309.966,113.546c-68.654,66.646 -100.928,48.759 -153.974,-4.287" style="fill:none;fill-rule:nonzero;stroke:#fff;stroke-width:10.54px;"/><path d="M87.322,95.907c58.693,-58.694 101.892,-54.334 153.964,-4.276" style="fill:none;fill-rule:nonzero;stroke:#fff;stroke-width:10.54px;"/><path d="M310.165,92.011c-14.852,-10.179 -37.839,-8.881 -50.616,3.896" style="fill:none;fill-rule:nonzero;stroke:#fff;stroke-width:10.54px;"/><path d="M206.608,92.011c-14.853,-10.179 -37.839,-8.881 -50.616,3.896" style="fill:none;fill-rule:nonzero;stroke:#fff;stroke-width:10.54px;"/><path d="M275.551,113.466c-33.308,29.953 -62.521,18.496 -85.224,-4.207" style="fill:none;fill-rule:nonzero;stroke:#fff;stroke-width:10.54px;"/><path d="M138.201,113.454c-29.65,26.398 -59.827,21.193 -85.214,-4.195" style="fill:none;fill-rule:nonzero;stroke:#fff;stroke-width:10.54px;"/></g></g><path id="text" d="M355.07,79.558l-0.176,7.293c-3.427,-5.536 -8.26,-8.963 -15.202,-8.963c-10.808,0 -19.156,9.139 -19.156,24.605c-0,15.553 8.611,24.077 19.42,24.077c6.59,0 11.423,-2.46 14.763,-7.733l-0,3.427c-0,11.16 -5.536,16.96 -14.324,16.96c-5.887,-0 -11.863,-2.548 -15.378,-4.833l-2.636,6.239c5.712,3.691 11.863,5.624 18.19,5.624c12.917,-0 21.705,-8.524 21.705,-23.638l-0,-43.058l-7.206,-0Zm-13.708,39.807c-7.645,-0 -12.918,-4.921 -12.918,-16.872c0,-11.951 5.273,-17.311 12.918,-17.311c7.645,-0 13.181,5.36 13.181,17.311c-0,11.951 -5.536,16.872 -13.181,16.872Z" style="fill:#fff;fill-rule:nonzero;"/><path d="M394.613,78.679c-6.503,0 -10.193,4.042 -12.917,8.436l-0.176,-7.557l-7.118,-0l0,45.606l7.821,0l-0,-31.019c3.251,-6.063 6.59,-7.733 10.984,-7.733c2.021,0 3.867,0.352 5.712,1.23l2.372,-7.293c-1.933,-1.055 -4.481,-1.67 -6.678,-1.67Z" style="fill:#fff;fill-rule:nonzero;"/><path d="M443.91,88.17c-2.46,-7.206 -9.139,-10.282 -16.872,-10.282c-6.326,0 -12.741,1.934 -17.486,5.273l2.46,5.799c3.603,-2.021 8.348,-3.866 14.323,-3.866c7.294,-0 11.248,2.9 11.248,11.16l0,0.966c-3.251,-0.615 -6.854,-0.966 -9.754,-0.966c-10.281,-0 -21.265,3.427 -21.265,15.466c-0,9.929 7.469,14.85 15.641,14.85c5.273,0 12.039,-2.197 15.993,-6.239l0.44,4.833l6.502,0l0,-26.098c0,-2.373 -0.088,-7.557 -1.23,-10.896Zm-20.299,31.458c-5.448,0 -9.051,-2.372 -9.051,-8.084c0,-8.085 7.645,-9.227 14.499,-9.227c4.043,0 6.327,0.439 8.524,0.879l0,10.281c-3.954,4.745 -10.017,6.151 -13.972,6.151Z" style="fill:#fff;fill-rule:nonzero;"/><path d="M479.059,77.888c-6.326,0 -11.511,3.427 -14.85,8.612l-0.088,-6.942l-6.942,-0l-0,60.896l7.645,0l-0,-21.441c3.251,4.657 8.172,7.557 14.148,7.557c11.335,0 19.683,-8.524 19.683,-24.077c0,-15.554 -8.26,-24.605 -19.596,-24.605Zm-1.23,41.477c-7.557,-0 -13.005,-4.921 -13.005,-16.872c-0,-11.951 5.448,-17.311 13.005,-17.311c7.645,-0 12.918,5.36 12.918,17.311c-0,11.951 -5.273,16.872 -12.918,16.872Z" style="fill:#fff;fill-rule:nonzero;"/><path d="M547.777,96.693c-0,-11.951 -5.888,-18.805 -16.169,-18.805c-6.327,0 -11.863,2.812 -15.905,7.03l-0,-21.792l-7.47,-0l0,62.038l7.821,0l0,-32.689c3.603,-4.13 8.524,-7.381 14.148,-7.381c7.469,-0 9.754,5.448 9.754,13.884l-0,26.186l7.821,0l-0,-28.471Z" style="fill:#fff;fill-rule:nonzero;"/><path d="M583.014,117.343c-1.846,1.143 -5.097,2.197 -7.909,2.197c-2.197,0 -3.691,-0.791 -4.569,-2.197c-1.23,-1.933 -1.406,-5.096 -1.406,-9.138l-0,-21.529l13.269,-0l-0,-6.591l-13.269,0l-0,-13.708l-6.942,-0l-0.44,13.708l-6.59,0l-0,6.591l6.327,-0l-0,23.55c-0,5.975 1.142,10.193 3.603,12.829c2.196,2.373 5.184,3.515 8.963,3.515c4.042,0 8.523,-1.318 11.511,-3.603l-2.548,-5.624Z" style="fill:#fff;fill-rule:nonzero;"/><path d="M628.532,88.17c-2.46,-7.206 -9.139,-10.282 -16.871,-10.282c-6.327,0 -12.742,1.934 -17.487,5.273l2.46,5.799c3.603,-2.021 8.348,-3.866 14.324,-3.866c7.293,-0 11.247,2.9 11.247,11.16l0,0.966c-3.251,-0.615 -6.854,-0.966 -9.754,-0.966c-10.281,-0 -21.265,3.427 -21.265,15.466c0,9.929 7.469,14.85 15.642,14.85c5.272,0 12.038,-2.197 15.992,-6.239l0.44,4.833l6.502,0l0,-26.098c0,-2.373 -0.087,-7.557 -1.23,-10.896Zm-20.299,31.458c-5.448,0 -9.05,-2.372 -9.05,-8.084c-0,-8.085 7.645,-9.227 14.499,-9.227c4.042,0 6.327,0.439 8.523,0.879l0,10.281c-3.954,4.745 -10.017,6.151 -13.972,6.151Z" style="fill:#fff;fill-rule:nonzero;"/><path d="M656.388,126.57c12.215,0 17.663,-7.469 17.663,-14.675c-0,-9.49 -9.403,-11.775 -16.257,-13.62c-5.624,-1.494 -10.193,-2.9 -10.193,-7.469c-0,-3.164 2.285,-6.151 9.051,-6.151c4.833,-0 9.314,1.493 13.62,4.042l3.164,-5.888c-4.746,-3.075 -10.545,-4.921 -16.433,-4.921c-11.072,0 -17.311,6.503 -17.311,13.884c0,7.47 6.415,10.984 12.566,12.83c5.975,1.845 13.533,2.636 13.533,8.084c-0,3.427 -2.9,6.766 -9.579,6.766c-4.921,0 -9.314,-1.845 -13.796,-5.448l-3.866,5.448c4.481,4.57 10.72,7.118 17.838,7.118Z" style="fill:#fff;fill-rule:nonzero;"/><path d="M710.87,125.164l9.666,0l-19.245,-25.922l17.399,-19.684l-9.666,-0l-17.926,20.65l0,-37.082l-7.469,-0l-0,62.038l7.469,0l0,-15.729l4.833,-5.273l14.939,21.002Z" style="fill:#fff;fill-rule:nonzero;"/></g><defs><linearGradient id="_Linear1" x1="0" y1="0" x2="1" y2="0" gradientUnits="userSpaceOnUse" gradientTransform="matrix(293.346,0,0,293.346,37.317,102.583)"><stop offset="0" style="stop-color:#fff;stop-opacity:1"/><stop offset="1" style="stop-color:#f88;stop-opacity:1"/></linearGradient><linearGradient id="_Linear2" x1="0" y1="0" x2="1" y2="0" gradientUnits="userSpaceOnUse" gradientTransform="matrix(293.346,0,0,293.346,37.317,102.583)"><stop offset="0" style="stop-color:#fff;stop-opacity:1"/><stop offset="1" style="stop-color:#f88;stop-opacity:1"/></linearGradient><linearGradient id="_Linear3" x1="0" y1="0" x2="1" y2="0" gradientUnits="userSpaceOnUse" gradientTransform="matrix(293.346,0,0,293.346,37.317,102.583)"><stop offset="0" style="stop-color:#fff;stop-opacity:1"/><stop offset="1" style="stop-color:#f88;stop-opacity:1"/></linearGradient><linearGradient id="_Linear4" x1="0" y1="0" x2="1" y2="0" gradientUnits="userSpaceOnUse" gradientTransform="matrix(293.346,0,0,293.346,37.317,102.583)"><stop offset="0" style="stop-color:#fff;stop-opacity:1"/><stop offset="1" style="stop-color:#f88;stop-opacity:1"/></linearGradient><linearGradient id="_Linear5" x1="0" y1="0" x2="1" y2="0" gradientUnits="userSpaceOnUse" gradientTransform="matrix(293.346,0,0,293.346,37.317,102.583)"><stop offset="0" style="stop-color:#fff;stop-opacity:1"/><stop offset="1" style="stop-color:#f88;stop-opacity:1"/></linearGradient><linearGradient id="_Linear6" x1="0" y1="0" x2="1" y2="0" gradientUnits="userSpaceOnUse" gradientTransform="matrix(293.346,0,0,293.346,37.317,102.583)"><stop offset="0" style="stop-color:#fff;stop-opacity:1"/><stop offset="1" style="stop-color:#f88;stop-opacity:1"/></linearGradient><linearGradient id="_Linear7" x1="0" y1="0" x2="1" y2="0" gradientUnits="userSpaceOnUse" gradientTransform="matrix(293.346,0,0,293.346,37.317,102.583)"><stop offset="0" style="stop-color:#fff;stop-opacity:1"/><stop offset="1" style="stop-color:#f88;stop-opacity:1"/></linearGradient><linearGradient id="_Linear8" x1="0" y1="0" x2="1" y2="0" gradientUnits="userSpaceOnUse" gradientTransform="matrix(293.346,0,0,293.346,37.317,102.583)"><stop offset="0" style="stop-color:#fff;stop-opacity:1"/><stop offset="1" style="stop-color:#f88;stop-opacity:1"/></linearGradient><linearGradient id="_Linear9" x1="0" y1="0" x2="1" y2="0" gradientUnits="userSpaceOnUse" gradientTransform="matrix(293.346,0,0,293.346,57.3527,102.583)"><stop offset="0" style="stop-color:#fff;stop-opacity:1"/><stop offset="1" style="stop-color:#f88;stop-opacity:1"/></linearGradient></defs></svg>